<?xml version="1.0" standalone="no"?>
<!DOCTYPE svg PUBLIC "-//W3C//DTD SVG 20010904//EN"
 "http://www.w3.org/TR/2001/REC-SVG-20010904/DTD/svg10.dtd">
<svg version="1.0" xmlns="http://www.w3.org/2000/svg"
 width="64.000000pt" height="64.000000pt" viewBox="0 0 64.000000 64.000000"
 preserveAspectRatio="xMidYMid meet">
<metadata>
Created by potrace 1.11, written by Peter Selinger 2001-2013
</metadata>
<g transform="translate(0.000000,64.000000) scale(0.100000,-0.100000)"
fill="#000000" stroke="none">
<path d="M397 414 c-23 -12 -35 -13 -56 -4 -27 11 -99 8 -156 -6 -29 -7 -105
-41 -105 -47 0 -2 23 0 51 3 75 10 128 5 147 -13 14 -15 11 -21 -41 -73 -31
-31 -57 -59 -57 -61 0 -3 15 4 33 15 17 11 62 36 98 55 62 33 68 34 99 21 18
-8 61 -43 96 -79 35 -36 66 -65 68 -65 3 0 -1 18 -9 40 -17 48 -69 126 -104
157 -21 19 -23 24 -11 38 12 14 12 18 -1 26 -18 11 -19 11 -52 -7z"/>
</g>
</svg>
